<?xml version="1.0" encoding="UTF-8"?>
<svg width="375px" height="812px" viewBox="0 0 375 812" version="1.1" xmlns="http://www.w3.org/2000/svg" xmlns:xlink="http://www.w3.org/1999/xlink">
    <!-- Generator: Sketch 63.1 (92452) - https://sketch.com -->
    <title>afternoon</title>
    <desc>Created with Sketch.</desc>
    <defs>
        <linearGradient x1="50%" y1="0%" x2="50%" y2="60.6993636%" id="linearGradient-1">
            <stop stop-color="#FF9723" stop-opacity="0.987980769" offset="0%"></stop>
            <stop stop-color="#F9B04B" stop-opacity="0.706047858" offset="100%"></stop>
        </linearGradient>
        <radialGradient cx="50%" cy="0%" fx="50%" fy="0%" r="100%" id="radialGradient-2">
            <stop stop-color="#EEEEEE" stop-opacity="0.275267701" offset="0%"></stop>
            <stop stop-color="#FAFAFA" stop-opacity="0.0703944493" offset="100%"></stop>
        </radialGradient>
    </defs>
    <g id="afternoon" stroke="none" stroke-width="1" fill="none" fill-rule="evenodd">
        <rect fill="#FFFFFF" x="0" y="0" width="375" height="812"></rect>
        <rect id="Rectangle-Copy" fill="url(#linearGradient-1)" x="0" y="0" width="375" height="812"></rect>
        <circle id="Oval" fill="url(#radialGradient-2)" cx="80" cy="56" r="4"></circle>
        <circle id="Oval-Copy-4" fill="url(#radialGradient-2)" cx="80" cy="130" r="4"></circle>
        <circle id="Oval-Copy" fill="url(#radialGradient-2)" cx="264" cy="73" r="4"></circle>
        <circle id="Oval-Copy-2" fill="url(#radialGradient-2)" cx="329" cy="52" r="4"></circle>
        <circle id="Oval-Copy-11" fill="url(#radialGradient-2)" cx="329" cy="126" r="4"></circle>
        <circle id="Oval-Copy-3" fill="url(#radialGradient-2)" cx="142" cy="105" r="4"></circle>
        <circle id="Oval-Copy-5" fill="url(#radialGradient-2)" cx="121" cy="67" r="2"></circle>
        <circle id="Oval-Copy-24" fill="url(#radialGradient-2)" cx="121" cy="168" r="2"></circle>
        <circle id="Oval-Copy-12" fill="url(#radialGradient-2)" cx="121" cy="141" r="2"></circle>
        <circle id="Oval-Copy-25" fill="url(#radialGradient-2)" cx="121" cy="242" r="2"></circle>
        <circle id="Oval-Copy-6" fill="url(#radialGradient-2)" cx="218" cy="69" r="4"></circle>
        <circle id="Oval-Copy-13" fill="url(#radialGradient-2)" cx="164" cy="37" r="4"></circle>
        <circle id="Oval-Copy-7" fill="url(#radialGradient-2)" cx="285" cy="48" r="2"></circle>
        <circle id="Oval-Copy-34" fill="url(#radialGradient-2)" cx="216" cy="107" r="2"></circle>
        <circle id="Oval-Copy-14" fill="url(#radialGradient-2)" cx="285" cy="122" r="2"></circle>
        <circle id="Oval-Copy-17" fill="url(#radialGradient-2)" cx="74" cy="178" r="2"></circle>
        <circle id="Oval-Copy-29" fill="url(#radialGradient-2)" cx="285" cy="223" r="2"></circle>
        <circle id="Oval-Copy-35" fill="url(#radialGradient-2)" cx="170" cy="219" r="2"></circle>
        <circle id="Oval-Copy-8" fill="url(#radialGradient-2)" cx="182" cy="89" r="2"></circle>
        <circle id="Oval-Copy-30" fill="url(#radialGradient-2)" cx="262" cy="163" r="2"></circle>
        <circle id="Oval-Copy-15" fill="url(#radialGradient-2)" cx="182" cy="163" r="2"></circle>
        <circle id="Oval-Copy-31" fill="url(#radialGradient-2)" cx="182" cy="264" r="2"></circle>
        <circle id="Oval-Copy-36" fill="url(#radialGradient-2)" cx="230" cy="215" r="2"></circle>
        <circle id="Oval-Copy-9" fill="url(#radialGradient-2)" cx="52" cy="92" r="1"></circle>
        <circle id="Oval-Copy-32" fill="url(#radialGradient-2)" cx="52" cy="193" r="1"></circle>
        <circle id="Oval-Copy-16" fill="url(#radialGradient-2)" cx="52" cy="166" r="1"></circle>
        <circle id="Oval-Copy-33" fill="url(#radialGradient-2)" cx="52" cy="267" r="1"></circle>
    </g>
</svg>