<?xml version="1.0" encoding="UTF-8"?>
<svg width="375px" height="812px" viewBox="0 0 375 812" version="1.1" xmlns="http://www.w3.org/2000/svg" xmlns:xlink="http://www.w3.org/1999/xlink">
    <!-- Generator: Sketch 63.1 (92452) - https://sketch.com -->
    <title>Mobile Copy 2</title>
    <desc>Created with Sketch.</desc>
    <defs>
        <linearGradient x1="50%" y1="0%" x2="50%" y2="60.6993636%" id="linearGradient-1">
            <stop stop-color="#FF7A72" offset="0%"></stop>
            <stop stop-color="#F4D168" offset="100%"></stop>
        </linearGradient>
        <linearGradient x1="50%" y1="70.385437%" x2="50%" y2="14.7441025%" id="linearGradient-2">
            <stop stop-color="#FFE62C" stop-opacity="0.492351399" offset="0%"></stop>
            <stop stop-color="#FD3D00" stop-opacity="0.27190778" offset="100%"></stop>
        </linearGradient>
        <radialGradient cx="50%" cy="0%" fx="50%" fy="0%" r="100%" id="radialGradient-3">
            <stop stop-color="#EEEEEE" stop-opacity="0.275267701" offset="0%"></stop>
            <stop stop-color="#FAFAFA" stop-opacity="0.0703944493" offset="100%"></stop>
        </radialGradient>
    </defs>
    <g id="Mobile-Copy-2" stroke="none" stroke-width="1" fill="none" fill-rule="evenodd">
        <rect id="Rectangle-Copy-3" fill="url(#linearGradient-1)" x="0" y="0" width="375" height="812"></rect>
        <circle id="Oval" fill="url(#linearGradient-2)" cx="188.5" cy="603.5" r="119.5"></circle>
        <path d="M0,667.560148 C50.6888003,633.021627 113.522134,631.652902 188.5,663.453972 C263.477866,695.255042 325.644533,681.052835 375,620.847349 L375,876 L0,876 L0,667.560148 Z" id="Path-2" fill="#0C0F3D"></path>
        <circle id="Oval-Copy-11" fill="url(#radialGradient-3)" cx="74" cy="56" r="4"></circle>
        <circle id="Oval-Copy-24" fill="url(#radialGradient-3)" cx="74" cy="130" r="4"></circle>
        <circle id="Oval-Copy-25" fill="url(#radialGradient-3)" cx="258" cy="73" r="4"></circle>
        <circle id="Oval-Copy-29" fill="url(#radialGradient-3)" cx="323" cy="52" r="4"></circle>
        <circle id="Oval-Copy-30" fill="url(#radialGradient-3)" cx="323" cy="126" r="4"></circle>
        <circle id="Oval-Copy-31" fill="url(#radialGradient-3)" cx="136" cy="105" r="4"></circle>
        <circle id="Oval-Copy-32" fill="url(#radialGradient-3)" cx="115" cy="67" r="2"></circle>
        <circle id="Oval-Copy-33" fill="url(#radialGradient-3)" cx="115" cy="168" r="2"></circle>
        <circle id="Oval-Copy-34" fill="url(#radialGradient-3)" cx="115" cy="141" r="2"></circle>
        <circle id="Oval-Copy-35" fill="url(#radialGradient-3)" cx="115" cy="242" r="2"></circle>
        <circle id="Oval-Copy-54" fill="url(#radialGradient-3)" cx="212" cy="69" r="4"></circle>
        <circle id="Oval-Copy-55" fill="url(#radialGradient-3)" cx="158" cy="37" r="4"></circle>
        <circle id="Oval-Copy-56" fill="url(#radialGradient-3)" cx="279" cy="48" r="2"></circle>
        <circle id="Oval-Copy-57" fill="url(#radialGradient-3)" cx="210" cy="107" r="2"></circle>
        <circle id="Oval-Copy-58" fill="url(#radialGradient-3)" cx="279" cy="122" r="2"></circle>
        <circle id="Oval-Copy-59" fill="url(#radialGradient-3)" cx="68" cy="178" r="2"></circle>
        <circle id="Oval-Copy-60" fill="url(#radialGradient-3)" cx="279" cy="223" r="2"></circle>
        <circle id="Oval-Copy-61" fill="url(#radialGradient-3)" cx="164" cy="219" r="2"></circle>
        <circle id="Oval-Copy-62" fill="url(#radialGradient-3)" cx="176" cy="89" r="2"></circle>
        <circle id="Oval-Copy-63" fill="url(#radialGradient-3)" cx="256" cy="163" r="2"></circle>
        <circle id="Oval-Copy-64" fill="url(#radialGradient-3)" cx="176" cy="163" r="2"></circle>
        <circle id="Oval-Copy-65" fill="url(#radialGradient-3)" cx="176" cy="264" r="2"></circle>
        <circle id="Oval-Copy-66" fill="url(#radialGradient-3)" cx="224" cy="215" r="2"></circle>
        <circle id="Oval-Copy-67" fill="url(#radialGradient-3)" cx="46" cy="92" r="1"></circle>
        <circle id="Oval-Copy-68" fill="url(#radialGradient-3)" cx="46" cy="193" r="1"></circle>
        <circle id="Oval-Copy-69" fill="url(#radialGradient-3)" cx="46" cy="166" r="1"></circle>
        <circle id="Oval-Copy-70" fill="url(#radialGradient-3)" cx="46" cy="267" r="1"></circle>
    </g>
</svg>